<?xml version="1.0" encoding="utf-8"?>
<!-- Generator: Adobe Illustrator 19.0.0, SVG Export Plug-In . SVG Version: 6.00 Build 0)  -->
<svg version="1.1" id="Monaca_Logo" xmlns="http://www.w3.org/2000/svg" xmlns:xlink="http://www.w3.org/1999/xlink" x="0px"
	 y="0px" viewBox="0 0 283.5 260" style="enable-background:new 0 0 283.5 260;" xml:space="preserve">
<style type="text/css">
	.st0{fill:#424242;}
	.st1{fill:#00629D;}
</style>
<g>
	<g>
		<path class="st0" d="M52,259.6c-1.3,0-4.5,0-4.5,0s0-3.5,0-4.8v-30.1l-13.2,22.8c-1.1,1.6-1.6,2.4-2.2,3c-1,0.8-2.2,1.2-3.6,1.2
			c-1.3,0-2.6-0.3-3.6-1.2c-0.6-0.5-1-1-2.2-3L8.9,224.7v30.1c0,1.3,0,4.8,0,4.8s-3.3,0-4.5,0c-1.2,0-2.3-0.5-3.2-1.4
			c-0.8-0.9-1.2-2.1-1.2-3.4v-37.4c0-1.8,0.6-3.3,1.7-4.6c1.2-1.3,2.6-2,4.2-2h2.5c1.2,0,2.4,0.4,3.4,1.2c1,0.8,1.3,1.6,2.1,2.9
			l14.6,24.7l14-24.7c1.1-1.6,1.2-2.1,2.1-2.9c1-0.9,2.2-1.2,3.4-1.2h2.5c1.7,0,3.1,0.7,4.2,2c1.1,1.3,1.7,2.8,1.7,4.6v37.4
			c0,1.3-0.4,2.5-1.2,3.4C54.3,259.1,53.2,259.6,52,259.6z"/>
		<path class="st0" d="M86.9,260c-6.1,0-11-2.2-14.7-6.4c-3.6-4.2-5.5-9.8-5.5-16.6c0-6.8,1.8-12.4,5.5-16.6
			c3.6-4.3,8.6-6.4,14.7-6.4c6.1,0,11,2.2,14.7,6.4c3.6,4.3,5.5,9.8,5.5,16.6c0,6.7-1.8,12.3-5.5,16.6C97.8,257.8,92.9,260,86.9,260
			z M86.9,223c-4.9,0-8.2,2.4-10.1,7.3c-0.7,1.8-1,4-1,6.6c0,2.6,0.4,4.8,1,6.6c0.7,1.8,1.6,3.2,2.6,4.3c1.1,1.1,2.2,1.9,3.6,2.4
			c1.3,0.5,2.7,0.8,3.9,0.8c1.3,0,2.6-0.3,3.9-0.8c1.3-0.5,2.5-1.3,3.6-2.3c2.4-2.5,3.7-6.2,3.7-11c0-4.6-1.2-8.3-3.7-10.8
			C92.3,224,89.9,223,86.9,223z"/>
		<path class="st0" d="M148.3,259.6c-1.3,0-4.4,0-4.4,0s0-3.5,0-4.8v-22.6c0-2.9-0.6-5.2-1.7-6.8c-1.1-1.5-2.8-2.2-5.4-2.2
			c-3.9,0-7.6,2.4-11.1,7.2v24.4c0,1.3,0,4.8,0,4.8s-3.3,0-4.5,0c-1.2,0-2.3-0.5-3.2-1.4c-0.8-0.9-1.2-2.1-1.2-3.4v-35.5
			c0-1.4,0.4-2.5,1.2-3.5c0.8-0.9,1.9-1.4,3.2-1.4c1.3,0,2.3,0.5,3.2,1.4c0.9,0.9,1.3,2.1,1.3,3.5v0.6c1.3-1.3,2.4-2.3,3.5-3
			c3-1.9,5.9-2.9,8.7-2.9c2.7,0,5,0.5,6.8,1.4c1.8,0.9,3.3,2.2,4.5,3.8c2.5,3.2,3.7,7.3,3.7,12.1v23.5c0,1.3-0.4,2.5-1.3,3.4
			C150.6,259.1,149.5,259.6,148.3,259.6z"/>
		<path class="st0" d="M174.7,260c-3.7,0-6.8-1.2-9.3-3.6c-2.6-2.5-3.9-5.8-3.9-9.9c0-4.4,1.5-7.9,4.6-10.4
			c3.2-2.7,7.8-4.1,13.6-4.1h7.9c-0.1-3.1-0.8-5.4-2.1-6.7c-1.4-1.4-3.7-2.1-6.8-2.1c-2.7,0-5.9,0.6-9.5,1.9c0,0,0,0-0.1,0
			c-0.5,0.1-1,0.2-1.6,0.2c-0.8,0-1.6-0.4-2.4-1.2c-0.7-0.8-1.1-1.9-1.1-3.4c0-1.1,0.4-2.7,2.6-3.7c4.3-2,8.8-3.1,13.4-3.1
			c5.4,0,9.6,1.9,12.6,5.5c2.6,3.2,4,7.1,4,11.8v23.4c0,1.3-0.4,2.5-1.3,3.4c-0.9,0.9-2,1.4-3.2,1.4c-1.2,0-4.4,0-4.4,0v-4.4
			c-1.1,0.9-2.3,1.8-3.8,2.7C181.4,259.3,178.3,260,174.7,260z M180.5,240.2c-3.3,0-6,0.5-7.8,1.4c-1.6,0.8-2.4,2.1-2.4,4.1
			c0,2.4,0.7,5.5,6.8,5.5c2.1,0,4.1-0.6,5.9-1.7c1.8-1.1,3.3-2.4,4.4-3.8v-5.5H180.5z"/>
		<path class="st0" d="M225.6,260c-5.8,0-10.7-2.1-14.7-6.1c-4.2-4.3-6.3-9.9-6.3-16.9c0-6.9,2.1-12.6,6.3-16.9
			c4-4.1,8.9-6.1,14.7-6.1c3.1,0,5.7,0.5,7.8,1.4c2,0.9,3.6,1.8,4.8,2.6c1.4,1,2.2,2.3,2.2,3.6c0,1.2-0.4,2.3-1,3.2
			c-0.8,1-1.6,1.5-2.5,1.5c-1,0-2.1-0.3-3.2-1c-2.3-1.4-4.8-2.2-7.4-2.2c-4.1,0-7.1,1.2-9.3,3.7c-2.2,2.5-3.3,5.9-3.3,10.1
			c0,4.2,1.1,7.6,3.3,10.1c2.2,2.5,5.2,3.7,9.3,3.7c2.6,0,5.1-0.7,7.4-2.2c1.1-0.7,2-1,2.9-1c0.7,0,1.8,0.3,2.7,1.5
			c0.7,0.9,1,2,1,3.2c0,1.4-0.7,2.6-2.2,3.6C234.4,258.6,230.2,260,225.6,260z"/>
		<path class="st0" d="M261.6,260c-3.7,0-6.8-1.2-9.3-3.6c-2.6-2.5-3.9-5.8-3.9-9.9c0-4.4,1.5-7.9,4.6-10.4
			c3.2-2.7,7.8-4.1,13.6-4.1h7.9c-0.1-3.1-0.8-5.4-2.1-6.7c-1.4-1.4-3.7-2.1-6.8-2.1c-2.7,0-5.9,0.6-9.5,1.9c0,0,0,0-0.1,0
			c-0.5,0.1-1,0.2-1.6,0.2c-0.8,0-1.6-0.4-2.4-1.2c-0.7-0.8-1.1-1.9-1.1-3.4c0-1.1,0.4-2.7,2.6-3.7c4.3-2,8.8-3.1,13.4-3.1
			c5.4,0,9.6,1.9,12.6,5.5c2.6,3.2,4,7.1,4,11.8v23.4c0,1.3-0.4,2.5-1.3,3.4c-0.9,0.9-2,1.4-3.2,1.4c-1.2,0-4.4,0-4.4,0l0-4.4
			c-1.1,0.9-2.4,1.8-3.8,2.7C268.3,259.3,265.3,260,261.6,260z M267.5,240.2c-3.3,0-5.9,0.5-7.8,1.4c-1.6,0.8-2.4,2.1-2.4,4.1
			c0,2.4,0.7,5.5,6.8,5.5c2.1,0,4.1-0.6,5.9-1.7c1.8-1.1,3.3-2.4,4.4-3.8v-5.5H267.5z"/>
	</g>
	<path class="st1" d="M196.7,0h-110C67.9,0,52.6,15.4,52.6,34.2v110c0,18.8,15.4,34.2,34.2,34.2h110c18.8,0,34.2-15.4,34.2-34.2
		v-110C230.9,15.4,215.5,0,196.7,0z M176.4,123.8h-69.4V54.5h69.4V123.8z"/>
</g>
</svg>
